<svg width="133" height="33" viewBox="0 0 133 33" fill="none" xmlns="http://www.w3.org/2000/svg">
<path d="M94.5166 15.2948C94.5166 15.008 94.749 14.7756 95.0358 14.7756H97.6703C97.957 14.7756 98.1894 15.008 98.1894 15.2948V17.1485C98.1894 17.1667 98.2042 17.1814 98.2223 17.1814C98.2354 17.1814 98.2472 17.1736 98.2525 17.1617C98.4157 16.7923 98.6577 16.4234 98.9784 16.0787C99.2777 15.7279 99.6314 15.4522 100.039 15.2016C100.42 14.951 100.856 14.7756 101.318 14.6253C101.753 14.5 102.243 14.4498 102.733 14.4248C102.869 14.4248 103.014 14.4403 103.172 14.467C103.41 14.5074 103.576 14.7214 103.576 14.9633V17.2661C103.576 17.5797 103.3 17.8221 102.988 17.7895C102.967 17.7873 102.945 17.7851 102.923 17.7828C102.651 17.7578 102.406 17.7327 102.189 17.7327C101.481 17.7327 100.883 17.858 100.393 18.0585C99.9034 18.284 99.4953 18.5848 99.1961 18.9607C98.8968 19.3366 98.6792 19.7626 98.5703 20.2638C98.4343 20.765 98.3799 21.3163 98.3799 21.8927V27.271C98.3799 27.5577 98.1475 27.7902 97.8607 27.7902H95.0358C94.749 27.7902 94.5166 27.5577 94.5166 27.271V15.2948Z" fill="#10239E"/>
<path d="M89.3139 19.8628C89.1235 18.9607 88.797 18.284 88.3345 17.8079C87.872 17.3568 87.1647 17.1313 86.2396 17.1062C85.6139 17.1062 85.097 17.2064 84.6889 17.4069C84.2808 17.6074 83.9543 17.8329 83.7095 18.1086C83.4646 18.4093 83.3014 18.7101 83.1925 19.0108C83.0837 19.3366 83.0293 19.6122 83.0293 19.8628H89.3139ZM83.0293 22.1182C83.0837 23.271 83.383 24.123 83.9815 24.6242C84.5529 25.1505 85.3962 25.4011 86.4845 25.4011C87.2463 25.4011 87.9264 25.2257 88.4978 24.8748C88.8906 24.6215 89.1842 24.3421 89.3683 24.0554C89.4885 23.8682 89.6812 23.7221 89.9037 23.7221H92.5664C92.7453 23.7221 92.8704 23.8989 92.8046 24.0652C92.2599 25.4426 91.461 26.4525 90.4294 27.0551C89.2867 27.7317 87.9264 28.0575 86.3485 28.0575C85.233 28.0575 84.2264 27.9071 83.3558 27.5813C82.458 27.2556 81.6962 26.7794 81.0977 26.178C80.4719 25.5765 79.9822 24.8748 79.6557 24.0228C79.3292 23.1958 79.166 22.2686 79.166 21.2662C79.166 20.3139 79.3293 19.4117 79.6829 18.5597C80.0094 17.7327 80.4991 17.006 81.1521 16.4045C81.7778 15.8031 82.5396 15.3019 83.4102 14.951C84.2808 14.6002 85.2602 14.4248 86.3485 14.4248C87.5455 14.4248 88.5794 14.6503 89.4772 15.0763C90.3478 15.5024 91.0824 16.0787 91.6537 16.7804C92.225 17.5072 92.6331 18.3342 92.9052 19.2363C93.1097 20.0108 93.2003 20.8027 93.1929 21.6268C93.1905 21.9025 92.9613 22.1182 92.6855 22.1182H83.0293Z" fill="#10239E"/>
<path d="M74.5454 27.4502C74.4703 27.6545 74.2757 27.7902 74.0581 27.7902H70.4839C70.2663 27.7902 70.0718 27.6546 69.9967 27.4504L65.4596 15.1249C65.3972 14.9555 65.5226 14.7757 65.7032 14.7757H69.0113C69.2344 14.7757 69.4326 14.9182 69.5035 15.1298L72.3416 23.5961C72.3468 23.6115 72.3612 23.6219 72.3775 23.6219C72.3937 23.6219 72.4082 23.6115 72.4133 23.5961L75.2514 15.1298C75.3224 14.9182 75.5205 14.7757 75.7437 14.7757H78.8342C79.0148 14.7757 79.1402 14.9554 79.0778 15.1248L74.5454 27.4502Z" fill="#10239E"/>
<path d="M61.4614 19.8628C61.271 18.9607 60.9445 18.284 60.482 17.8079C60.0195 17.3568 59.3121 17.1313 58.3871 17.1062C57.7614 17.1062 57.2444 17.2064 56.8363 17.4069C56.4283 17.6074 56.1018 17.8329 55.8569 18.1086C55.6121 18.4093 55.4488 18.7101 55.34 19.0108C55.2312 19.3366 55.1768 19.6122 55.1768 19.8628H61.4614ZM55.1768 22.1182C55.2312 23.271 55.5304 24.123 56.129 24.6242C56.7003 25.1505 57.5437 25.4011 58.632 25.4011C59.3937 25.4011 60.0739 25.2257 60.6452 24.8748C61.0381 24.6215 61.3317 24.3421 61.5158 24.0554C61.6359 23.8682 61.8287 23.7221 62.0511 23.7221H64.7139C64.8927 23.7221 65.0178 23.8989 64.9521 24.0652C64.4074 25.4426 63.6085 26.4525 62.5769 27.0551C61.4342 27.7317 60.0739 28.0575 58.4959 28.0575C57.3805 28.0575 56.3738 27.9071 55.5032 27.5813C54.6054 27.2556 53.8437 26.7794 53.2451 26.178C52.6194 25.5765 52.1297 24.8748 51.8032 24.0228C51.4767 23.1958 51.3135 22.2686 51.3135 21.2662C51.3135 20.3139 51.4767 19.4117 51.8304 18.5597C52.1569 17.7327 52.6466 17.006 53.2995 16.4045C53.9253 15.8031 54.6871 15.3019 55.5577 14.951C56.4283 14.6002 57.4077 14.4248 58.4959 14.4248C59.693 14.4248 60.7268 14.6503 61.6246 15.0763C62.4952 15.5024 63.2298 16.0787 63.8012 16.7804C64.3725 17.5072 64.7806 18.3342 65.0526 19.2363C65.2572 20.0108 65.3478 20.8027 65.3404 21.6268C65.3379 21.9025 65.1088 22.1182 64.833 22.1182H55.1768Z" fill="#10239E"/>
<path d="M46.126 9.76488C46.126 9.47816 46.3584 9.24573 46.6451 9.24573H49.4157C49.7024 9.24573 49.9349 9.47816 49.9349 9.76488V27.2711C49.9349 27.5578 49.7024 27.7902 49.4157 27.7902H46.6451C46.3584 27.7902 46.126 27.5578 46.126 27.2711V9.76488Z" fill="#10239E"/>
<path d="M40.798 15.6258C40.5473 15.6258 40.3371 15.4449 40.26 15.2064C40.1688 14.9243 40.0403 14.6612 39.8743 14.4094C39.6016 14.037 39.3015 13.7143 38.9197 13.4164C38.5379 13.1433 38.1015 12.9199 37.6105 12.7709C37.1196 12.622 36.6287 12.5475 36.1104 12.5227C35.1286 12.5227 34.3103 12.6964 33.6557 13.044C32.9739 13.3915 32.4284 13.8384 32.0193 14.4094C31.5829 14.9804 31.2829 15.6258 31.0919 16.3458C30.901 17.0905 30.8192 17.8353 30.8192 18.6049C30.8192 19.3496 30.901 20.0944 31.0919 20.7895C31.2829 21.4846 31.5829 22.13 32.0193 22.6762C32.4284 23.2472 32.9739 23.694 33.6557 24.0416C34.3103 24.3891 35.1286 24.5381 36.1104 24.5381C37.4196 24.5381 38.4288 24.1905 39.1652 23.4458C39.8074 22.8179 40.2422 22.0012 40.4515 21.0121C40.5052 20.7582 40.7222 20.5661 40.9816 20.5661H44.1023C44.409 20.5661 44.6502 20.8309 44.6013 21.1336C44.4579 22.0231 44.1902 22.8305 43.8291 23.5699C43.3654 24.4636 42.7654 25.2332 42.029 25.8538C41.2653 26.4993 40.3925 26.971 39.4106 27.2937C38.4015 27.6413 37.3105 27.7902 36.1104 27.7902C34.6103 27.7902 33.2739 27.5668 32.0738 27.0951C30.8737 26.6234 29.8919 25.978 29.0736 25.1339C28.2554 24.3147 27.6281 23.3465 27.1917 22.2293C26.7553 21.1122 26.5371 19.8958 26.5371 18.6049C26.5371 17.2891 26.7553 16.0727 27.1917 14.9307C27.6281 13.7888 28.2554 12.7957 29.0736 11.9517C29.8919 11.1324 30.8737 10.4622 32.0738 9.96566C33.2739 9.49398 34.6103 9.27055 36.1104 9.24573C37.1741 9.24573 38.1833 9.39468 39.1379 9.66776C40.0925 9.96566 40.938 10.3629 41.7017 10.909C42.4654 11.4552 43.0927 12.1006 43.5836 12.895C43.9787 13.5343 44.2501 14.2538 44.4121 15.0408C44.4754 15.3485 44.2317 15.6258 43.9176 15.6258H40.798Z" fill="#10239E"/>
<path d="M127.837 10.921H130.661C130.948 10.921 131.18 11.1535 131.18 11.4402V13.9968C131.18 14.2835 130.948 14.516 130.661 14.516H127.837V21.3853C127.837 23.7233 127.982 23.7164 128.272 23.9903C128.562 24.2642 129.143 24.4011 130.013 24.4011C130.303 24.4353 130.557 24.4011 130.848 24.3669C130.926 24.3669 131.013 24.3486 131.101 24.3179C131.32 24.2421 131.634 24.3884 131.634 24.6201V27.4133C131.634 27.6214 131.51 27.811 131.317 27.8886C130.948 28.037 130.551 28.1672 130.158 28.1672C129.614 28.2015 129.106 28.2015 128.599 28.2015C128.565 28.2015 127.99 28.2015 127.748 28.1672C127.159 28.0838 126.283 27.7735 125.739 27.4654C125.457 27.3058 124.755 26.6255 124.588 26.2566C124.566 26.2081 124.545 26.1591 124.519 26.1124C124.273 25.6674 124.137 24.869 124.137 24.0245V14.516H121.452C121.165 14.516 120.933 14.2835 120.933 13.9968V11.4402C120.933 11.1535 121.165 10.921 121.452 10.921H124.137V5.44866C124.137 5.16194 124.369 4.9295 124.656 4.9295H127.318C127.604 4.9295 127.837 5.16194 127.837 5.44866V10.921Z" fill="#10239E"/>
<path fill-rule="evenodd" clip-rule="evenodd" d="M104.972 13.9968C104.972 14.2835 105.204 14.516 105.491 14.516H107.511V27.2715C107.511 27.5582 107.743 27.7906 108.03 27.7906H111.055C111.341 27.7906 111.574 27.5582 111.574 27.2715V14.516H114.065C114.352 14.516 114.585 14.2835 114.585 13.9968L114.585 11.4402C114.585 11.1535 114.352 10.921 114.065 10.921H111.574L111.574 10.6129C111.574 9.89392 111.719 9.21115 112.009 8.90301C112.299 8.59488 112.807 8.42369 113.533 8.42369C114.084 8.42369 114.609 8.44809 115.13 8.49688C115.284 8.5113 115.419 8.39111 115.419 8.23641V4.92951L114.04 4.9295L112.68 4.92951C110.957 4.92951 109.597 5.75888 108.781 6.55578C107.729 7.5829 107.511 8.76409 107.511 10.3048L107.511 10.921H105.491C105.204 10.921 104.972 11.1535 104.972 11.4402L104.972 13.9968ZM119.844 16.5758C119.844 16.2891 119.612 16.0566 119.325 16.0566H116.41C116.123 16.0566 115.89 16.2891 115.89 16.5758V27.2715C115.89 27.5582 116.123 27.7906 116.41 27.7906H119.325C119.612 27.7906 119.844 27.5582 119.844 27.2715V16.5758Z" fill="#10239E"/>
<path d="M119.844 12.7528C119.844 13.7957 118.983 14.6411 117.94 14.6411C116.897 14.6411 116.036 13.7957 116.036 12.7528C116.036 11.7098 116.897 10.8644 117.94 10.8644C118.983 10.8644 119.844 11.7098 119.844 12.7528Z" fill="#40A9FF"/>
<path d="M21.8801 22.877C21.8801 25.7363 19.5654 28.0444 16.6979 28.0444C13.8305 28.0444 11.5158 25.7363 11.5158 22.877C11.5158 20.0176 9.20104 17.7095 6.33356 17.7095C3.46608 17.7095 1.15137 15.4013 1.15137 12.542C1.15137 9.68263 3.46608 7.37448 6.33356 7.37448C9.20104 7.37448 11.5158 9.68263 11.5158 12.542C11.5158 15.4013 13.8305 17.7095 16.6979 17.7095C19.5654 17.7095 21.8801 20.0176 21.8801 22.877Z" fill="#10239E"/>
<ellipse cx="17.0296" cy="12.3089" rx="4.5716" ry="4.55863" fill="#10239E"/>
<ellipse cx="6.09992" cy="23.2076" rx="4.5716" ry="4.55863" fill="#40A9FF"/>
</svg>
