<svg width="23" height="23" viewBox="0 0 23 23" fill="none" xmlns="http://www.w3.org/2000/svg">
<path d="M22.7321 17.1525C22.7321 20.2435 20.2383 22.7386 17.1489 22.7386C14.0596 22.7386 11.5657 20.2435 11.5657 17.1525C11.5657 14.0615 9.07193 11.5664 5.98258 11.5664C2.89323 11.5664 0.399414 9.07131 0.399414 5.98036C0.399414 2.8894 2.89323 0.394287 5.98258 0.394287C9.07193 0.394287 11.5657 2.8894 11.5657 5.98036C11.5657 9.07131 14.0596 11.5664 17.1489 11.5664C20.2383 11.5664 22.7321 14.0615 22.7321 17.1525Z" fill="#10239E"/>
<ellipse cx="17.5064" cy="5.72843" rx="4.92533" ry="4.92789" fill="#10239E"/>
<ellipse cx="5.731" cy="17.5099" rx="4.92533" ry="4.92789" fill="#40A9FF"/>
</svg>
